<?xml version="1.0" encoding="UTF-8" standalone="no"?>
<svg
   xmlns:dc="http://purl.org/dc/elements/1.1/"
   xmlns:cc="http://creativecommons.org/ns#"
   xmlns:rdf="http://www.w3.org/1999/02/22-rdf-syntax-ns#"
   xmlns:svg="http://www.w3.org/2000/svg"
   xmlns="http://www.w3.org/2000/svg"
   version="1.1"
   viewBox="0 0 309.06175 695.36453"
   height="695.3645"
   width="309.06177"
   data-name="Layer 1"
   id="a62e712f-3cb4-4d7a-829a-d896e102ddef">
  <metadata
     id="metadata113">
    <rdf:RDF>
      <cc:Work
         rdf:about="">
        <dc:format>image/svg+xml</dc:format>
        <dc:type
           rdf:resource="http://purl.org/dc/dcmitype/StillImage" />
        <dc:title>review</dc:title>
      </cc:Work>
    </rdf:RDF>
  </metadata>
  <defs
     id="defs111" />
  <title
     id="title2">review</title>
  <ellipse
     style="fill:#83d3b7"
     id="ellipse4"
     ry="12"
     rx="155"
     cy="683.3645"
     cx="155" />
  <path
     style="opacity:0.1;fill:#83d3b7"
     id="path6"
     d="m 124.25788,28.33151 -0.13277,-0.73539 -12.57243,-6.659 h -1.973 l -0.75465,-1.44633 H 82.91471 l -6.00851,1.44633 h -22.129 l -5.995,6.99605 -0.0613,0.42893 c -0.38811,2.50226 -9.05914,61.34071 13.81854,80.06159 l 9.53913,4.43257 h 6.16871 l -1.20584,-2.40775 5.3627,2.40775 h 17.3625 l 0.30844,-0.46278 10.30313,-3.85746 0.26555,-0.30638 c 0.92939,-1.10298 22.82652,-27.70851 13.61416,-79.89813 z" />
  <rect
     style="fill:#e6e6e6"
     id="rect8"
     height="26.55442"
     width="10.21324"
     y="86.812523"
     x="82.914703" />
  <rect
     style="fill:#3f3d56"
     id="rect10"
     height="510.6619"
     width="18.383829"
     y="147.58128"
     x="78.318748" />
  <rect
     style="fill:#3f3d56"
     id="rect12"
     height="17.362499"
     width="27.575741"
     y="138.90002"
     x="73.722794" />
  <polygon
     style="fill:#3f3d56"
     id="polygon14"
     points="109.469,107.239 63.51,107.239 80.872,125.623 73.723,138.9 88.021,141.964 101.299,138.9 93.128,124.602 " />
  <path
     style="fill:#3f3d56"
     id="path16"
     d="m 50.23235,28.59706 -8.17059,-8.17059 6.12794,-6.12794 h 77.62061 l 6.12794,7.14927 -9.19191,7.14926 c 0,0 -49.02355,-2.04265 -72.51399,0 z" />
  <path
     style="fill:#3f3d56"
     id="path18"
     d="m 124.25788,28.33151 -0.13277,-0.73539 -12.57243,-6.659 -5.74,-3.04358 -32.22266,-2.07328 -18.06729,4.24868 -0.74554,0.86816 -5.995,6.99605 -0.0613,0.42893 c -0.38811,2.50226 -9.05914,61.34071 13.81854,80.06159 l 9.53913,4.43257 8.02759,3.7278 -1.85888,-3.7278 -3.05375,-6.09733 C 71.9969,88.15042 64.97006,39.25965 69.45381,29.04642 l 18.5267,-5.97478 16.44341,6.10762 c 1.13353,7.34332 8.46669,58.82823 -4.38152,77.18145 l -0.27578,0.39827 v 5.75006 l 10.61157,-3.973 0.26555,-0.30638 c 0.92941,-1.103 22.82654,-27.70853 13.61418,-79.89815 z m -15.72828,77.62061 -5.69907,2.14475 v -0.38811 c 14.09432,-21.029 4.882,-77.49805 4.48363,-79.90836 l -0.143,-0.87832 -16.11652,-5.985 -2.99241,-1.11327 -3.4522,1.11327 -17.28072,5.57639 -0.29623,0.52089 c -6.567,11.77589 4.69819,77.6615 5.17818,80.45991 l 0.0409,0.22467 1.21531,2.43075 -9.14079,-4.21807 C 43.95119,88.96745 50.93701,34.64323 51.68256,29.26083 l 5.5153,-6.43432 8.02746,-1.88943 8.63026,-2.03242 14.20665,0.91915 16.89274,1.09283 0.0408,0.0204 16.37185,8.66081 c 8.10937,47.33837 -10.49924,73.33108 -12.83799,76.35423 z" />
  <ellipse
     style="fill:#3f3d56"
     id="ellipse20"
     ry="14.29853"
     rx="27.575741"
     cy="14.29853"
     cx="88.021317" />
  <path
     style="fill:#3f3d56"
     id="path22"
     d="m 73.72279,632.19942 -16.34118,52.08751 c 0,0 25.5331,14.29853 60.25811,0 l -16.34118,-52.08751 z" />
  <circle
     style="fill:#83d3b7"
     id="bulb"
     r="8.1705904"
     cy="81.705902"
     cx="88.021317" />
  <path
     style="fill:#a0616a"
     id="path68"
     d="m 116.82611,318.1448 c 0,0 -6.49095,19.47287 -2.88487,23.80018 3.60608,4.32731 -21.63653,-12.98192 -21.63653,-12.98192 l 13.70317,-15.8668 z" />
  <circle
     style="fill:#2f2e41"
     id="circle70"
     r="32.381329"
     cy="285.73181"
     cx="102.02366" />
  <polygon
     style="fill:#a0616a"
     id="polygon72"
     points="227.894,537.395 211.306,550.377 201.93,535.231 218.518,523.692 " />
  <path
     style="fill:#2f2e41"
     id="path74"
     d="m 204.45406,635.11996 4.32731,20.91531 12.2607,16.588 c 0,0 33.176,10.097 10.81826,15.14557 -22.35774,5.04857 -27.40627,-3.60608 -27.40627,-3.60608 l -15.86679,-13.70314 v 18.75164 h -10.09705 l -2.16365,-26.685 c 0,0 -1.44243,-7.9334 5.04853,-16.588 l 1.44243,-12.98192 z" />
  <path
     style="fill:#a0616a"
     id="path76"
     d="m 120.79281,376.20282 5.76974,33.176 c 0,0 61.3035,-6.491 65.63081,5.76974 4.32731,12.26074 5.76974,15.86679 5.76974,15.86679 l -12.2607,4.3273 -5.76974,-10.81826 a 13.69822,13.69822 0 0 0 -10.81827,0.72122 c -5.76974,2.88487 -56.255,10.097 -59.86106,0.72121 -3.60606,-9.37579 -13.70314,-43.99427 -13.70314,-43.99427 l 15.14557,-12.2607 z" />
  <path
     style="opacity:0.1"
     id="path78"
     d="m 120.79281,376.20282 5.76974,33.176 c 0,0 61.3035,-6.491 65.63081,5.76974 4.32731,12.26074 5.76974,15.86679 5.76974,15.86679 l -12.2607,4.3273 -5.76974,-10.81826 a 13.69822,13.69822 0 0 0 -10.81827,0.72122 c -5.76974,2.88487 -56.255,10.097 -59.86106,0.72121 -3.60606,-9.37579 -13.70314,-43.99427 -13.70314,-43.99427 l 15.14557,-12.2607 z" />
  <path
     style="fill:#2f2e41"
     id="path80"
     d="m 154.69004,472.12476 5.04853,17.30923 12.98191,66.352 c 0,0 1.44244,49.0428 3.60609,54.81254 2.16365,5.76974 2.16365,6.491 0,8.65462 -2.16365,2.16362 -6.491,9.37583 0,13.70313 6.491,4.3273 29.56993,9.37583 30.29114,4.32731 0.72121,-5.04852 0.72122,-12.98192 0,-16.588 -0.72122,-3.60608 2.16366,-59.86106 2.16366,-59.86106 l -8.65462,-85.8249 -29.56987,-13.70313 z" />
  <path
     style="opacity:0.1"
     id="path82"
     d="m 154.69004,472.12476 5.04853,17.30923 12.98191,66.352 c 0,0 1.44244,49.0428 3.60609,54.81254 2.16365,5.76974 2.16365,6.491 0,8.65462 -2.16365,2.16362 -6.491,9.37583 0,13.70313 6.491,4.3273 29.56993,9.37583 30.29114,4.32731 0.72121,-5.04852 0.72122,-12.98192 0,-16.588 -0.72122,-3.60608 2.16366,-59.86106 2.16366,-59.86106 l -8.65462,-85.8249 -29.56987,-13.70313 z" />
  <path
     style="fill:#2f2e41"
     id="path84"
     d="m 185.7024,404.33031 15.86679,30.29114 c 0,0 90.87342,40.38819 82.94,56.97619 -7.93342,16.588 -51.92767,47.60037 -51.92767,47.60037 0,0 -2.16365,12.2607 -8.65461,8.65461 -6.49096,-3.60609 -22.35775,-22.35775 -20.91532,-24.5214 1.44243,-2.16365 6.491,-7.21218 8.65462,-6.491 2.16362,0.72118 27.40627,-18.75166 27.40627,-18.75166 L 195.79942,487.2703 c 0,0 -51.92767,-1.44244 -54.81254,-25.96384 -2.88487,-24.5214 0,-28.84871 0,-28.84871 l -3.60609,-7.93339 29.56992,-18.03044 z" />
  <path
     style="fill:#2f2e41"
     id="path86"
     d="m 208.06015,524.05244 -15.14557,13.70313 c 0,0 -12.98192,-5.76974 -20.91531,-3.60609 -7.93339,2.16365 -21.63653,3.60609 -21.63653,3.60609 l 2.16365,12.2607 18.401,-3.39483 -14.79491,20.70406 c 0,0 0,32.45479 9.37583,32.45479 9.37583,0 6.491,-19.47288 6.491,-19.47288 l 28.8487,-22.35774 c 0,0 14.42435,-5.76975 15.86679,-5.76975 1.44244,0 -8.65465,-28.12748 -8.65465,-28.12748 z" />
  <circle
     style="fill:#a0616a"
     id="circle88"
     r="24.5214"
     cy="299.39313"
     cx="113.94124" />
  <path
     style="fill:#575a89"
     id="path90"
     d="m 89.78045,318.5054 c 0,0 11.53949,-2.88487 15.14557,0 3.60608,2.88487 4.32731,9.37583 9.37583,10.097 5.04852,0.72117 9.37583,0.72122 10.097,1.44244 0.72117,0.72122 17.30922,20.91531 17.30922,20.91531 0,0 10.097,5.76974 12.2607,13.70313 2.1637,7.93339 23.80019,34.61845 26.68506,37.50332 2.88487,2.88487 -18.75166,17.30923 -25.96384,22.35775 -7.21218,5.04852 -28.12749,7.21218 -34.61845,-4.32731 C 113.58058,408.65755 78.24097,333.65097 89.78045,318.5054 Z" />
  <path
     style="fill:#a0616a"
     id="path92"
     d="m 117.18672,365.38455 5.76974,33.176 c 0,0 61.30351,-6.491 65.63081,5.76975 4.3273,12.26075 5.76974,15.86678 5.76974,15.86678 l -12.2607,4.32731 -5.76974,-10.81827 a 13.6982,13.6982 0 0 0 -10.81826,0.72122 c -5.76974,2.88487 -56.255,10.097 -59.86107,0.72122 -3.60607,-9.37578 -13.70313,-43.9943 -13.70313,-43.9943 l 15.14557,-12.2607 z" />
  <path
     style="fill:#575a89"
     id="path94"
     d="m 103.40438,321.53979 c 0,0 17.38843,36.63259 15.946,46.72963 -1.44243,10.09704 -6.491,2.88487 -6.491,2.88487 0,0 -6.491,-10.097 -9.37583,-4.3273 -2.88483,5.7697 -6.491,13.70313 -9.37583,12.98191 -2.88483,-0.72122 -18.75166,-54.09132 -10.097,-59.13984 8.65466,-5.04852 19.39366,0.87073 19.39366,0.87073 z" />
  <circle
     style="fill:#2f2e41"
     id="circle96"
     r="32.381329"
     cy="243.09641"
     cx="66.943878" />
  <path
     style="fill:#2f2e41"
     id="path98"
     d="m 39.01326,269.91026 a 32.38308,32.38308 0 0 0 50.00535,-17.00289 32.38312,32.38312 0 1 1 -63.16725,-13.27935 32.37117,32.37117 0 0 0 13.1619,30.28224 z" />
  <circle
     style="fill:#2f2e41"
     id="circle100"
     r="23.746309"
     cy="291.12869"
     cx="93.388641" />
  <ellipse
     style="fill:#2f2e41"
     id="ellipse102"
     ry="16.46051"
     rx="21.047859"
     cy="282.22382"
     cx="113.35712" />
  <ellipse
     style="fill:#a0616a"
     id="ellipse104"
     ry="8.2939997"
     rx="4.6879101"
     cy="301.91739"
     cx="114.30185" />
  <path
     style="fill:#2f2e41"
     id="path106"
     d="m 178.65207,424.20926 c 0,0 12.76753,-7.32507 15.13776,-5.48829 2.37023,1.83678 3.4233,7.58439 3.4233,7.58439 l -14.75625,5.79182 -4.3273,-7.93339 z" />
</svg>
