<?xml version="1.0" encoding="UTF-8" standalone="no"?>
<svg
   xmlns:dc="http://purl.org/dc/elements/1.1/"
   xmlns:cc="http://creativecommons.org/ns#"
   xmlns:rdf="http://www.w3.org/1999/02/22-rdf-syntax-ns#"
   xmlns:svg="http://www.w3.org/2000/svg"
   xmlns="http://www.w3.org/2000/svg"
   xmlns:sodipodi="http://sodipodi.sourceforge.net/DTD/sodipodi-0.dtd"
   xmlns:inkscape="http://www.inkscape.org/namespaces/inkscape"
   id="a925cca1-fa72-4afa-8f48-18ebd70d8ee6"
   data-name="Layer 1"
   width="766"
   height="240.87073"
   viewBox="0 0 766 240.87072"
   version="1.1"
   sodipodi:docname="undraw_virtual_assistant.svg"
   inkscape:version="0.92.4 (5da689c313, 2019-01-14)">
  <metadata
     id="metadata3901">
    <rdf:RDF>
      <cc:Work
         rdf:about="">
        <dc:format>image/svg+xml</dc:format>
        <dc:type
           rdf:resource="http://purl.org/dc/dcmitype/StillImage" />
        <dc:title>virtual_assistant</dc:title>
      </cc:Work>
    </rdf:RDF>
  </metadata>
  <defs
     id="defs3899" />
  <sodipodi:namedview
     pagecolor="#ffffff"
     bordercolor="#666666"
     borderopacity="1"
     objecttolerance="10"
     gridtolerance="10"
     guidetolerance="10"
     inkscape:pageopacity="0"
     inkscape:pageshadow="2"
     inkscape:window-width="1920"
     inkscape:window-height="1027"
     id="namedview3897"
     showgrid="false"
     inkscape:zoom="1.071334"
     inkscape:cx="275.10838"
     inkscape:cy="437.78257"
     inkscape:window-x="-8"
     inkscape:window-y="-8"
     inkscape:window-maximized="1"
     inkscape:current-layer="a925cca1-fa72-4afa-8f48-18ebd70d8ee6" />
  <title
     id="title3808">virtual_assistant</title>
  <g
     id="girl_sitting"
     inkscape:label="#g3955"
     transform="translate(0,-559.99979)">
    <rect
       id="rect3810"
       height="2"
       width="766"
       y="766.43536"
       x="0"
       style="fill:#3f3d56" />
    <rect
       id="rect3812"
       height="23.36134"
       width="23.36134"
       y="743.71649"
       x="706.1712"
       style="fill:#0077ff" />
    <rect
       id="rect3814"
       transform="rotate(-38.97687,152.25656,1083.3252)"
       height="23.36134"
       width="23.36134"
       y="789.83575"
       x="319.104"
       style="fill:#0077ff" />
    <g
       inkscape:label="#g3926"
       id="girl">
      <path
         d="m 809.44085,634.96076 c -10.24521,-17.31123 -30.51453,-18.118 -30.51453,-18.118 0,0 -19.7513,-2.52578 -32.42164,23.83944 -11.80977,24.57455 -28.10875,48.30178 -2.624,54.0545 l 4.60329,-14.32748 2.85079,15.39414 a 99.71338,99.71338 0 0 0 10.904,0.18636 c 27.2921,-0.88115 53.2837,0.2578 52.44681,-9.53575 -1.11257,-13.01916 4.61322,-34.83635 -5.24472,-51.49321 z"
         id="path3846"
         transform="translate(-217,-49.56464)"
         inkscape:connector-curvature="0"
         style="fill:#2f2e41" />
      <path
         d="m 742.42556,786.56345 a 40.41363,40.41363 0 0 1 -1.30691,5.626 c -0.64111,1.80275 -1.6309,3.47 -2.21709,5.29131 -1.8685,5.80566 0.7218,12.27883 4.85891,16.76005 a 27.34922,27.34922 0 0 0 13.33428,7.91792 54.40353,54.40353 0 0 0 11.45907,1.20419 c 10.65043,0.36115 21.57488,0.68426 31.6668,-2.73851 a 55.01962,55.01962 0 0 0 9.20015,-4.17956 6.888,6.888 0 0 0 2.38724,-1.87968 6.5693,6.5693 0 0 0 0.86147,-3.85612 c -0.0226,-4.515 -0.938,-9.007 -0.72065,-13.51679 0.12037,-2.498 0.58788,-4.994 0.35776,-7.4843 a 13.807,13.807 0 0 0 -10.552,-11.89336 28.661,28.661 0 0 0 -8.74688,4.8e-4 223.018,223.018 0 0 1 -22.76406,1.01786 c -7.76567,-0.0496 -15.48339,-1.235 -23.21041,-1.35879 -2.2851,-0.0366 -2.23894,0.66786 -2.96644,2.87942 a 53.8738,53.8738 0 0 0 -1.64124,6.20988 z"
         id="path3848"
         transform="translate(-217,-49.56464)"
         inkscape:connector-curvature="0"
         style="fill:#2f2e41" />
      <path
         d="m 764.4639,675.07714 a 13.55615,13.55615 0 0 1 -1.95082,5.58535 c -1.351,1.84753 -3.55383,2.90317 -5.00724,4.67128 -2.18769,2.66139 -2.31326,6.40639 -2.32227,9.85151 -0.008,3.17371 0.0562,6.55882 1.826,9.19324 a 16.06642,16.06642 0 0 0 4.60448,4.05954 c 6.63725,4.47292 13.80948,9.02614 21.81187,9.17365 3.31569,0.0611 6.87085,-0.79516 9.05253,-3.29271 a 13.592,13.592 0 0 0 2.19176,-3.91028 51.92525,51.92525 0 0 0 3.67563,-15.80748 18.561,18.561 0 0 0 -0.69972,-7.59358 c -0.97215,-2.71048 -2.93783,-4.94065 -4.237,-7.51048 a 16.71994,16.71994 0 0 1 -1.60934,-9.894 1.068,1.068 0 0 0 -0.0565,-0.717 1.04445,1.04445 0 0 0 -0.86073,-0.34877 l -15.86745,-1.14227 a 34.53089,34.53089 0 0 1 -4.40559,-0.504 c -0.85537,-0.17392 -3.11461,-1.38875 -3.93022,-1.06572 -1.50971,0.5979 -1.90595,7.63132 -2.21541,9.25172 z"
         id="path3850"
         transform="translate(-217,-49.56464)"
         inkscape:connector-curvature="0"
         style="fill:#ffb8b8" />
      <path
         d="m 764.4639,675.07714 a 13.55615,13.55615 0 0 1 -1.95082,5.58535 c -1.351,1.84753 -3.55383,2.90317 -5.00724,4.67128 -2.18769,2.66139 -2.31326,6.40639 -2.32227,9.85151 -0.008,3.17371 0.0562,6.55882 1.826,9.19324 a 16.06642,16.06642 0 0 0 4.60448,4.05954 c 6.63725,4.47292 13.80948,9.02614 21.81187,9.17365 3.31569,0.0611 6.87085,-0.79516 9.05253,-3.29271 a 13.592,13.592 0 0 0 2.19176,-3.91028 51.92525,51.92525 0 0 0 3.67563,-15.80748 18.561,18.561 0 0 0 -0.69972,-7.59358 c -0.97215,-2.71048 -2.93783,-4.94065 -4.237,-7.51048 a 16.71994,16.71994 0 0 1 -1.60934,-9.894 1.068,1.068 0 0 0 -0.0565,-0.717 1.04445,1.04445 0 0 0 -0.86073,-0.34877 l -15.86745,-1.14227 a 34.53089,34.53089 0 0 1 -4.40559,-0.504 c -0.85537,-0.17392 -3.11461,-1.38875 -3.93022,-1.06572 -1.50971,0.5979 -1.90595,7.63132 -2.21541,9.25172 z"
         id="path3852"
         transform="translate(-217,-49.56464)"
         inkscape:connector-curvature="0"
         style="opacity:0.1" />
      <circle
         cx="562.63837"
         cy="604.36078"
         r="23.279409"
         id="circle3854"
         style="fill:#ffb8b8" />
      <path
         d="m 767.729,706.06569 a 14.27705,14.27705 0 0 0 4.08892,3.26734 12.84845,12.84845 0 0 0 5.10823,0.97261 c 4.19633,0.118 8.74543,-0.65087 11.66461,-3.66775 3.763,-3.88891 3.639,-10.16136 6.58854,-14.6983 a 3.2741,3.2741 0 0 1 0.95044,-1.03947 3.08094,3.08094 0 0 1 1.61657,-0.37168 c 3.72516,-0.0348 6.97013,2.38121 9.89872,4.68369 a 13.03882,13.03882 0 0 1 3.48415,3.5492 12.02953,12.02953 0 0 1 1.17493,3.59811 158.0771,158.0771 0 0 1 2.39107,21.57467 c 0.258,3.99157 0.51614,7.987 0.497,11.98684 -0.0632,13.17783 -3.12613,26.13528 -6.172,38.95643 -0.39247,1.652 -0.92954,3.49855 -2.43187,4.28984 a 5.99655,5.99655 0 0 1 -2.122,0.51793 259.68707,259.68707 0 0 1 -26.24911,2.18565 q -5.14129,0.0792 -10.27812,-0.24891 a 5.53667,5.53667 0 0 1 -1.7314,-0.30183 4.8825,4.8825 0 0 1 -1.88755,-1.60294 c -4.75082,-5.98665 -5.03124,-14.26329 -5.00088,-21.90589 q 0.11138,-28.02825 2.00283,-56.01171 c 0.10411,-1.53982 0.12684,-3.4099 -0.98268,-4.62122 a 57.85137,57.85137 0 0 0 7.3896,8.88739 z"
         id="path3856"
         transform="translate(-217,-49.56464)"
         inkscape:connector-curvature="0"
         style="fill:#d0cde1" />
      <path
         d="m 762.79792,679.18607 c -0.78625,1.42325 -6.58293,4.95742 -7.702,6.137 -6.25263,6.59065 -17.66459,6.34335 -23.38307,13.40245 a 21.99463,21.99463 0 0 0 -3.826,8.70672 c -1.08732,4.38789 -1.6679,9.17328 0.15356,13.31068 1.75266,3.98111 5.4422,6.73342 7.94715,10.28957 2.75041,3.90461 3.987,8.6456 5.17216,13.27229 0.875,3.41618 1.75731,6.917 1.41653,10.42694 -0.38746,3.99074 -2.31862,7.64486 -3.45883,11.48883 -1.14021,3.84397 -1.337,8.4222 1.29933,11.44311 1.93684,2.21936 4.97481,3.0992 7.87859,3.59415 a 90.515,90.515 0 0 0 11.22941,0.97758 c 3.31943,0.14666 6.9784,0.17517 9.53021,-1.95281 a 9.5818,9.5818 0 0 0 3.0019,-7.02314 45.32755,45.32755 0 0 0 -0.77305,-7.81482 c -0.35386,-2.69469 -0.48985,-5.41286 -0.60363,-8.1283 q -0.7658,-18.27578 -0.209,-36.57506 a 31.126,31.126 0 0 0 -0.3702,-7.58964 c -0.71189,-3.26343 -2.47562,-6.17992 -3.94729,-9.17841 a 34.73315,34.73315 0 0 1 -3.851,-18.34818 c 0.44562,-6.52926 3.29303,-11.50361 0.49523,-6.43896 z"
         id="path3858"
         transform="translate(-217,-49.56464)"
         inkscape:connector-curvature="0"
         style="fill:#0077ff" />
      <path
         d="m 795.48815,679.68138 c 1.19759,1.23086 5.267,1.63663 6.79041,2.42932 a 23.79328,23.79328 0 0 0 4.46382,1.54552 57.95092,57.95092 0 0 1 15.6813,7.19715 9.51682,9.51682 0 0 1 2.62235,2.26509 10.38289,10.38289 0 0 1 1.45059,4.09637 46.48658,46.48658 0 0 1 1.328,11.2005 c -0.17793,3.99742 -1.382,7.86892 -2.57656,11.68784 l -4.46336,14.26941 c -3.3316,10.65113 -6.68432,21.40712 -7.62178,32.5277 a 76.51379,76.51379 0 0 0 0.68672,18.47453 2.1902,2.1902 0 0 1 -0.22512,1.78935 1.76235,1.76235 0 0 1 -1.093,0.50292 c -2.15422,0.33684 -4.239,-0.76156 -6.19076,-1.73349 a 68.55554,68.55554 0 0 0 -18.89849,-6.18372 43.935,43.935 0 0 0 5.86981,-12.10027 73.23121,73.23121 0 0 0 1.77346,-8.3218 l 2.07631,-12.00878 a 117.998,117.998 0 0 0 1.7811,-13.27973 16.62451,16.62451 0 0 0 -0.289,-5.00247 24.26762,24.26762 0 0 0 -1.89635,-4.51134 c -3.42186,-7.11782 -5.02741,-15.24054 -3.681,-23.02256 0.58922,-3.40564 1.73423,-6.81584 1.25678,-10.23894 -0.45905,-3.29116 0.018,-5.849 -0.82641,-9.10607 -3.46719,-13.37328 -0.2719,-4.79217 1.98118,-2.47653 z"
         id="path3860"
         transform="translate(-217,-49.56464)"
         inkscape:connector-curvature="0"
         style="fill:#0077ff" />
      <path
         d="m 731.6536,709.97941 c -1.56,3.2372 -4.168,5.995 -5.05569,9.4771 a 20.70466,20.70466 0 0 0 -0.44081,4.95327 23.52918,23.52918 0 0 0 0.73483,7.44809 c 0.49543,1.53555 1.30144,2.95167 1.8821,4.45706 a 16.16092,16.16092 0 0 1 1.05862,6.60316 c -0.15666,3.11823 -1.216,6.1451 -1.29879,9.26616 -0.13019,4.90814 2.14,9.52219 4.3551,13.904 a 10.22128,10.22128 0 0 1 14.85706,-4.864 3.04681,3.04681 0 0 0 0.66962,-2.221 q 0.24559,-8.5413 0.47381,-17.08308 c 0.23978,-8.807 0.46821,-17.73158 -1.55773,-26.30571 a 24.81724,24.81724 0 0 0 -4.94717,-10.73013 c -1.37388,-1.581 -6.03783,-5.74553 -8.29309,-3.97437 -1.01421,0.79651 -0.77717,2.96468 -0.93787,4.06259 a 17.236,17.236 0 0 1 -1.49999,5.00686 z"
         id="path3862"
         transform="translate(-217,-49.56464)"
         inkscape:connector-curvature="0"
         style="fill:#0077ff" />
      <path
         d="m 828.28063,700.65059 a 23.82522,23.82522 0 0 1 0.79665,7.16569 q 0.045,7.3837 -0.19571,14.76547 a 27.52615,27.52615 0 0 1 -0.95915,7.47548 c -0.50378,1.58418 -1.2812,3.06973 -1.80148,4.64856 -1.55924,4.73168 -0.70732,9.86363 -0.57361,14.8438 a 16.86611,16.86611 0 0 1 -0.40846,4.80173 c -0.82287,3.08732 -3.03424,5.582 -4.57768,8.37954 -1.46584,2.65693 -2.35032,5.63506 -4.101,8.11358 -1.75068,2.47852 -4.78134,4.44243 -7.71886,3.68156 -2.22573,-0.5765 -3.80724,-2.54658 -4.90116,-4.56885 a 22.4096,22.4096 0 0 1 -2.317,-14.53633 c 1.09824,-6.04451 4.64876,-11.40678 5.92923,-17.41533 1.75837,-8.25106 -0.914,-16.7655 -0.83453,-25.20147 a 12.18211,12.18211 0 0 1 0.531,-3.90653 16.3495,16.3495 0 0 1 3.44677,-5.01117 63.26786,63.26786 0 0 0 4.63243,-6.07952 c 0.954,-1.4228 2.24974,-5.08224 3.94115,-5.38651 3.77632,-0.67929 8.17451,5.3128 9.11141,8.2303 z"
         id="path3864"
         transform="translate(-217,-49.56464)"
         inkscape:connector-curvature="0"
         style="fill:#0077ff" />
      <path
         d="m 712.05894,782.89392 a 22.97784,22.97784 0 0 0 -6.39178,-0.67948 15.95286,15.95286 0 0 0 -14.81073,18.80607 26.79507,26.79507 0 0 0 2.53276,6.921 c 1.69511,3.44 3.72817,6.87219 6.86627,9.07665 a 26.74309,26.74309 0 0 0 6.05967,2.88444 l 16.52773,6.22629 c 2.43142,0.916 4.8632,1.832 7.31868,2.68137 a 143.1529,143.1529 0 0 0 38.22637,7.59948 41.39213,41.39213 0 0 0 11.8689,-0.60142 3.86377,3.86377 0 0 0 2.43073,-1.31321 4.16285,4.16285 0 0 0 0.5431,-1.79385 l 1.017,-7.11984 a 5.96383,5.96383 0 0 0 -0.0864,-3.00142 5.74865,5.74865 0 0 0 -2.74721,-2.58885 c -10.86582,-6.24079 -23.553,-9.68378 -32.69888,-18.24916 -2.15309,-2.01643 -3.95489,-5.21267 -6.57087,-6.58239 -2.9665,-1.55324 -6.46011,-2.43973 -9.5264,-3.871 -6.70324,-3.12899 -13.29384,-6.72466 -20.5589,-8.39468 z"
         id="path3866"
         transform="translate(-217,-49.56464)"
         inkscape:connector-curvature="0"
         style="fill:#2f2e41" />
      <path
         d="m 728.55948,792.4925 c 5.84186,1.83053 30.5062,14.51254 34.73374,18.94042 -0.56666,0.20416 -19.793,-10.57055 -20.36986,-10.74369 A 116.16524,116.16524 0 0 1 727.426,795.2279 c -1.00185,-0.46336 -6.50859,-2.64126 -6.25921,-3.90531 0.28141,-1.4264 6.3556,0.84494 7.39269,1.16991 z"
         id="path3868"
         transform="translate(-217,-49.56464)"
         inkscape:connector-curvature="0"
         style="opacity:0.1" />
      <path
         d="m 801.44035,840.10231 a 1.37222,1.37222 0 0 0 0.92608,-0.27255 1.43039,1.43039 0 0 0 0.28946,-1.06568 l -0.0272,-9.69976 a 29.81514,29.81514 0 0 0 -8.97174,-2.16427 L 779.368,824.99011 c 0.32829,0.0439 -2.23415,6.15435 -1.84125,6.97012 0.69249,1.43779 5.98465,2.71207 7.47823,3.39094 5.1922,2.35998 10.58756,4.95449 16.43537,4.75114 z"
         id="path3870"
         transform="translate(-217,-49.56464)"
         inkscape:connector-curvature="0"
         style="fill:#ffb8b8" />
      <path
         d="m 756.60905,829.03076 c -2.69788,0.4297 -5.70906,0.80955 -7.45624,2.90967 -2.21567,2.66324 -1.27244,6.63347 -0.2155,9.9327 a 3.22042,3.22042 0 0 0 3.75695,2.68726 c 2.46042,0.1558 5.07881,0.27785 7.22858,-0.929 a 31.68262,31.68262 0 0 0 2.808,-2.08722 18.00348,18.00348 0 0 1 5.16275,-2.36034 52.20561,52.20561 0 0 1 10.36334,-2.1357 16.11794,16.11794 0 0 0 4.08254,-0.71966 4.52365,4.52365 0 0 0 2.87509,-2.79138 c 0.498,-1.76273 -0.52653,-3.55989 -1.50909,-5.10578 a 20.36917,20.36917 0 0 0 -4.34568,-5.371 c -2.66247,-2.06816 -3.97951,-0.48052 -6.66144,0.84294 a 56.51851,56.51851 0 0 1 -16.0893,5.12751 z"
         id="path3872"
         transform="translate(-217,-49.56464)"
         inkscape:connector-curvature="0"
         style="fill:#ffb8b8" />
      <path
         d="m 749.55869,831.46086 -17.13052,-5.06318 a 22.6741,22.6741 0 0 0 -6.37488,-1.23533 7.653,7.653 0 0 0 -5.85442,2.36757 c -1.32836,1.559 -1.70856,3.6898 -2.03971,5.711 l -0.70839,4.32374 a 21.71572,21.71572 0 0 0 -0.39663,6.63967 7.34123,7.34123 0 0 0 3.40314,5.47007 c 2.37053,1.29332 5.27592,0.66162 7.92157,0.12065 a 86.24332,86.24332 0 0 1 16.23372,-1.74083 c 2.05043,-0.0245 4.20108,10e-4 6.01292,-0.9591 a 7.50715,7.50715 0 0 0 3.66377,-5.98243 c 0.3371,-3.69341 -0.89398,-8.51786 -4.73057,-9.65183 z"
         id="path3874"
         transform="translate(-217,-49.56464)"
         inkscape:connector-curvature="0"
         style="fill:#2f2e41" />
      <path
         d="m 808.17409,827.04861 c 2.22071,-0.38921 4.18062,-1.65133 6.30854,-2.39631 2.99517,-1.04861 6.241,-1.04859 9.41438,-1.037 a 6.04384,6.04384 0 0 1 3.37523,0.676 c 1.39783,0.9306 1.75609,2.79294 1.99377,4.4553 l 1.434,10.02977 a 15.73922,15.73922 0 0 1 0.11715,5.68213 5.34557,5.34557 0 0 1 -3.532,4.13 c -2.24,0.58235 -4.436,-0.8486 -6.55106,-1.78859 -5.28635,-2.34944 -11.43143,-1.749 -16.9434,-3.50494 a 3.79747,3.79747 0 0 1 -2.53575,-1.81332 4.12577,4.12577 0 0 1 -0.19728,-1.73321 c 0.0944,-3.22387 -0.58557,-7.62611 0.385,-10.70721 0.87296,-2.77098 4.25254,-1.99262 6.73142,-1.99262 z"
         id="path3876"
         transform="translate(-217,-49.56464)"
         inkscape:connector-curvature="0"
         style="fill:#2f2e41" />
      <path
         d="m 844.426,778.857 a 29.74787,29.74787 0 0 1 10.47918,-0.716 c 2.8015,0.30863 5.6879,1.08818 7.7333,3.02723 2.48956,2.36011 3.28946,6.01007 3.35619,9.43987 a 29.49225,29.49225 0 0 1 -6.41019,18.835 17.0901,17.0901 0 0 1 -3.66484,3.528 24.12312,24.12312 0 0 1 -4.76818,2.2978 l -37.01318,14.5991 c -9.73735,3.84069 -19.50907,7.69252 -29.66564,10.2245 a 2.312,2.312 0 0 1 -3.11106,-1.12792 76.6826,76.6826 0 0 1 -8.11226,-14.83941 0.99995,0.99995 0 0 1 0.442,-1.57665 L 799.871,807.50646 a 26.47048,26.47048 0 0 0 5.32852,-3.67144 13.2284,13.2284 0 0 0 2.73569,-3.80864 c 0.54267,-1.13345 0.59329,-3.80823 1.28645,-4.646 0.67866,-0.82027 3.00025,-0.88573 4.07248,-1.20836 a 36.952,36.952 0 0 0 4.43352,-1.67594 c 5.85621,-2.61987 11.07107,-6.42642 16.685,-9.494 A 42.81126,42.81126 0 0 1 844.426,778.857 Z"
         id="path3878"
         transform="translate(-217,-49.56464)"
         inkscape:connector-curvature="0"
         style="fill:#2f2e41" />
      <path
         d="m 829.58444,790.09031 c -4.49777,3.37813 -10.32158,6.48341 -14.77934,9.95056 -1.52138,1.1833 -26.88325,15.442 -27.24185,17.33573 4.15883,0.70073 30.651,-17.83256 34.4414,-19.68189 a 61.21338,61.21338 0 0 0 10.47992,-7.046 c 0.8485,-0.65971 4.44442,-2.6429 2.00865,-3.38 -1.37215,-0.41514 -3.89577,2.14629 -4.90878,2.8216 z"
         id="path3880"
         transform="translate(-217,-49.56464)"
         inkscape:connector-curvature="0"
         style="opacity:0.1" />
      <polygon
         points="534.511,602.799 548.753,602.251 552.732,592.967 552.732,602.098 559.304,601.845 563.118,587.065 565.502,602.799 588.865,602.322 587.911,583.727 567.886,573.238 540.232,577.529 "
         id="polygon3882"
         style="fill:#2f2e41" />
      <rect
         x="540.34955"
         y="635.56512"
         width="43.091671"
         height="52.007191"
         id="rect3884"
         style="fill:#3f3d56" />
      <path
         d="m 736.89266,775.5839 a 10.4056,10.4056 0 0 0 3.73789,3.71863 7.31,7.31 0 0 0 6.42558,-0.17222 11.31031,11.31031 0 0 0 4.63713,-4.64922 c 2.17633,-3.84308 2.627,-8.44174 2.35547,-12.84991 -0.27153,-4.40817 -1.21281,-8.74882 -1.6294,-13.14566 -0.30282,-3.1962 -0.32745,-6.41146 -0.35184,-9.62188 a 3.19972,3.19972 0 0 1 0.40435,-1.94591 3.82059,3.82059 0 0 1 2.14674,-1.072 c 4.39232,-1.305 7.30783,-5.422 9.398,-9.49957 1.3957,-2.72272 2.60937,-5.699 2.34022,-8.74675 -0.26915,-3.04775 -2.45983,-6.11807 -5.5036,-6.429 -2.50937,-0.25633 -4.82638,1.3375 -6.6365,3.09423 a 28.45778,28.45778 0 0 0 -8.33238,16.6523 c -0.39734,3.09888 -0.28353,6.28208 -1.1264,9.29048 -1.79968,6.4235 -7.43055,10.36179 -10.23665,16.14179 -3.09197,6.36894 -1.38542,13.59948 2.37139,19.23469 z"
         id="path3886"
         transform="translate(-217,-49.56464)"
         inkscape:connector-curvature="0"
         style="fill:#ffb8b8" />
      <path
         d="m 819.75416,751.04347 a 12.13947,12.13947 0 0 1 -6.8077,6.54134 9.4022,9.4022 0 0 1 -5.91806,0.36245 6.56246,6.56246 0 0 1 -4.33536,-3.87777 10.44641,10.44641 0 0 1 -0.48833,-2.91273 c -0.28161,-4.33174 -0.17279,-8.79548 1.40065,-12.84116 0.60688,-1.56042 1.42514,-3.04029 1.90409,-4.64461 a 23.29365,23.29365 0 0 0 0.717,-5.66834 l 0.51724,-11.81917 a 7.692,7.692 0 0 0 -0.17557,-2.56274 c -0.51592,-1.71017 -2.11425,-2.82155 -3.58078,-3.84141 -3.54176,-2.463 -7.04175,-5.33714 -8.758,-9.29507 a 6.51922,6.51922 0 0 1 -0.60516,-3.85018 c 0.48392,-2.347 2.85242,-3.86635 5.19344,-4.37823 a 11.61683,11.61683 0 0 1 13.927,9.36126 c 0.23161,1.33382 0.22843,2.69627 0.364,4.04324 0.28756,2.85725 1.19463,5.61148 1.76209,8.42655 1.39775,6.9341 0.67347,14.102 2.05568,21.03488 1.15573,5.79671 5.51361,9.57911 2.82777,15.92169 z"
         id="path3888"
         transform="translate(-217,-49.56464)"
         inkscape:connector-curvature="0"
         style="fill:#ffb8b8" />
      <circle
         cx="563"
         cy="654.07166"
         r="7"
         id="circle3890"
         style="fill:#0077ff" />
    </g>
  </g>
</svg>
